<?xml version="1.0" encoding="UTF-8"?>
<svg id="SVGDoc" width="32" height="29" xmlns="http://www.w3.org/2000/svg" version="1.1" xmlns:xlink="http://www.w3.org/1999/xlink" xmlns:avocode="https://avocode.com/" viewBox="0 0 32 29"><defs></defs><desc>Generated with Avocode.</desc><g><g><title>Forma 1</title><path d="M-0.00005,1.18183c0,-0.65009 0.53263,-1.18213 1.18361,-1.18213h4.28085c0.53263,0 1.00613,0.35469 1.14412,0.86697l4.83313,17.4553h13.17787l4.37937,-10.0476h-14.59808c-0.65107,0 -1.1837,-0.53204 -1.1837,-1.18213c0,-0.65009 0.53263,-1.18213 1.1837,-1.18213h16.41293c0.39454,0 0.76933,0.19711 0.98639,0.53204c0.21696,0.33493 0.25644,0.74865 0.09861,1.12284l-5.40524,12.41187c-0.19722,0.43322 -0.6115,0.70912 -1.0849,0.70912h-14.85462c-0.53263,0 -1.00613,-0.35469 -1.14412,-0.8667l-4.83322,-17.4553h-3.39308c-0.65098,0 -1.18361,-0.53204 -1.18361,-1.18213zM6.74662,26.32046c0,-1.47753 1.20335,-2.67916 2.68288,-2.67916c1.47953,0 2.68288,1.20163 2.68288,2.67916c0,1.4778 -1.20335,2.67943 -2.68288,2.67943c-1.47953,0 -2.68288,-1.2019 -2.68288,-2.67943zM23.53453,26.4978c-0.09871,-1.45777 1.00603,-2.75822 2.48556,-2.85651c1.47963,-0.09856 2.76184,1.02428 2.86045,2.48232c0.03948,0.72888 -0.17757,1.41851 -0.65098,1.95028c-0.4735,0.5518 -1.12448,0.86697 -1.83458,0.926c-0.05922,0 -0.13809,0 -0.19732,0c-1.40066,0 -2.56453,-1.10334 -2.66314,-2.50208z" fill="#222222" fill-opacity="1"></path></g></g></svg>