<?xml version="1.0" encoding="UTF-8"?>
<svg id="SVGDoc" width="26" height="24" xmlns="http://www.w3.org/2000/svg" version="1.1" xmlns:xlink="http://www.w3.org/1999/xlink" xmlns:avocode="https://avocode.com/" viewBox="0 0 26 24"><defs></defs><desc>Generated with Avocode.</desc><g><g><title>Forma 1 copy</title><path d="M-0.00025,0.97751c0,-0.53791 0.43278,-0.97808 0.96169,-0.97808h3.47824c0.43278,0 0.81739,0.29344 0.92964,0.71768l3.92685,14.44501h10.707l3.55825,-8.31495h-11.86094c-0.529,0 -0.96178,-0.44016 -0.96178,-0.97828c0,-0.53791 0.43278,-0.97808 0.96178,-0.97808h13.33542c0.32063,0 0.62523,0.16305 0.80147,0.44016c0.17633,0.27712 0.20838,0.61954 0.0802,0.9295l-4.39186,10.27131c-0.16022,0.35894 -0.49677,0.58709 -0.88148,0.58709h-12.06932c-0.43287,0 -0.81749,-0.29344 -0.92964,-0.71728l-3.92694,-14.44561h-2.75688c-0.52891,0 -0.96169,-0.43997 -0.96169,-0.97848zM5.48137,21.78192c0,-1.22255 0.97771,-2.21735 2.17991,-2.21735c1.20211,0 2.17981,0.995 2.17981,2.21735c0,1.22275 -0.97771,2.21755 -2.17981,2.21755c-1.2022,0 -2.17991,-0.9948 -2.17991,-2.21755zM19.12149,21.92884c-0.08001,-1.20662 0.81758,-2.28265 2.01969,-2.36427c1.2022,-0.08162 2.2439,0.84788 2.3241,2.0545c0.03204,0.60301 -0.14429,1.17417 -0.529,1.61414c-0.38462,0.45649 -0.91352,0.71748 -1.49069,0.76626c-0.04807,0 -0.11206,0 -0.16012,0c-1.13802,0 -2.08368,-0.91318 -2.16398,-2.07063z" fill="#ef5b70" fill-opacity="1"></path></g></g></svg>