<?xml version="1.0" encoding="UTF-8"?>
<svg id="SVGDoc" width="27" height="26" xmlns="http://www.w3.org/2000/svg" version="1.1" xmlns:xlink="http://www.w3.org/1999/xlink" xmlns:avocode="https://avocode.com/" viewBox="0 0 27 26"><defs><clipPath id="ClipPath1017"><path d="M1.99995,2.89652c0,-0.49305 0.3828,-0.89662 0.85068,-0.89662h3.07693c0.3828,0 0.72308,0.26896 0.82235,0.65757l3.47376,13.24171h9.47161l3.1477,-7.62217h-10.49242c-0.46797,0 -0.85077,-0.40357 -0.85077,-0.89662c0,-0.49331 0.3828,-0.89688 0.85077,-0.89688h11.79676c0.28362,0 0.55304,0.14957 0.70896,0.40357c0.15602,0.254 0.18435,0.56783 0.07095,0.85201l-3.88508,9.41567c-0.14172,0.32879 -0.43945,0.53792 -0.77982,0.53792h-10.67667c-0.3829,0 -0.72317,-0.26896 -0.82235,-0.65757l-3.47385,-13.24171h-2.43883c-0.46787,0 -0.85068,-0.40357 -0.85068,-0.89688zM6.8491,21.96717c0,-1.12097 0.86489,-2.03254 1.92833,-2.03254c1.06344,0 1.92833,0.91184 1.92833,2.03254c0,1.12097 -0.86489,2.03281 -1.92833,2.03281c-1.06344,0 -1.92833,-0.91184 -1.92833,-2.03281zM18.91537,22.10178c-0.07086,-1.10601 0.72317,-2.09237 1.78661,-2.16716c1.06344,-0.07478 1.98498,0.77723 2.05593,1.88324c0.02832,0.55287 -0.1276,1.0761 -0.46797,1.47967c-0.34027,0.41853 -0.80814,0.65757 -1.31865,0.70244c-0.04253,0 -0.09918,0 -0.14172,0c-1.0067,0 -1.84326,-0.83706 -1.91422,-1.8982z" fill="#ffffff"></path></clipPath></defs><desc>Generated with Avocode.</desc><g><g><title>Forma 1 copy</title><path d="M1.99995,2.89652c0,-0.49305 0.3828,-0.89662 0.85068,-0.89662h3.07693c0.3828,0 0.72308,0.26896 0.82235,0.65757l3.47376,13.24171h9.47161l3.1477,-7.62217h-10.49242c-0.46797,0 -0.85077,-0.40357 -0.85077,-0.89662c0,-0.49331 0.3828,-0.89688 0.85077,-0.89688h11.79676c0.28362,0 0.55304,0.14957 0.70896,0.40357c0.15602,0.254 0.18435,0.56783 0.07095,0.85201l-3.88508,9.41567c-0.14172,0.32879 -0.43945,0.53792 -0.77982,0.53792h-10.67667c-0.3829,0 -0.72317,-0.26896 -0.82235,-0.65757l-3.47385,-13.24171h-2.43883c-0.46787,0 -0.85068,-0.40357 -0.85068,-0.89688zM6.8491,21.96717c0,-1.12097 0.86489,-2.03254 1.92833,-2.03254c1.06344,0 1.92833,0.91184 1.92833,2.03254c0,1.12097 -0.86489,2.03281 -1.92833,2.03281c-1.06344,0 -1.92833,-0.91184 -1.92833,-2.03281zM18.91537,22.10178c-0.07086,-1.10601 0.72317,-2.09237 1.78661,-2.16716c1.06344,-0.07478 1.98498,0.77723 2.05593,1.88324c0.02832,0.55287 -0.1276,1.0761 -0.46797,1.47967c-0.34027,0.41853 -0.80814,0.65757 -1.31865,0.70244c-0.04253,0 -0.09918,0 -0.14172,0c-1.0067,0 -1.84326,-0.83706 -1.91422,-1.8982z" fill="#ffffff" fill-opacity="1"></path><path d="M1.99995,2.89652c0,-0.49305 0.3828,-0.89662 0.85068,-0.89662h3.07693c0.3828,0 0.72308,0.26896 0.82235,0.65757l3.47376,13.24171h9.47161l3.1477,-7.62217h-10.49242c-0.46797,0 -0.85077,-0.40357 -0.85077,-0.89662c0,-0.49331 0.3828,-0.89688 0.85077,-0.89688h11.79676c0.28362,0 0.55304,0.14957 0.70896,0.40357c0.15602,0.254 0.18435,0.56783 0.07095,0.85201l-3.88508,9.41567c-0.14172,0.32879 -0.43945,0.53792 -0.77982,0.53792h-10.67667c-0.3829,0 -0.72317,-0.26896 -0.82235,-0.65757l-3.47385,-13.24171h-2.43883c-0.46787,0 -0.85068,-0.40357 -0.85068,-0.89688zM6.8491,21.96717c0,-1.12097 0.86489,-2.03254 1.92833,-2.03254c1.06344,0 1.92833,0.91184 1.92833,2.03254c0,1.12097 -0.86489,2.03281 -1.92833,2.03281c-1.06344,0 -1.92833,-0.91184 -1.92833,-2.03281zM18.91537,22.10178c-0.07086,-1.10601 0.72317,-2.09237 1.78661,-2.16716c1.06344,-0.07478 1.98498,0.77723 2.05593,1.88324c0.02832,0.55287 -0.1276,1.0761 -0.46797,1.47967c-0.34027,0.41853 -0.80814,0.65757 -1.31865,0.70244c-0.04253,0 -0.09918,0 -0.14172,0c-1.0067,0 -1.84326,-0.83706 -1.91422,-1.8982z" fill-opacity="0" fill="#ffffff" stroke-linejoin="round" stroke-linecap="round" stroke-opacity="1" stroke="#ffffff" stroke-miterlimit="20" stroke-width="4" clip-path="url(&quot;#ClipPath1017&quot;)"></path></g></g></svg>