<?xml version="1.0" encoding="UTF-8"?>
<svg id="SVGDoc" width="45" height="32" xmlns="http://www.w3.org/2000/svg" version="1.1" xmlns:xlink="http://www.w3.org/1999/xlink" xmlns:avocode="https://avocode.com/" viewBox="0 0 45 32"><defs></defs><desc>Generated with Avocode.</desc><g><g><title>Forma 1</title><path d="M12.03896,26.35708c0,1.53496 -1.23339,2.7836 -2.74935,2.7836c-1.51625,0 -2.74982,-1.24864 -2.74982,-2.7836c0,-1.53469 1.23358,-2.78333 2.74982,-2.78333c0.51279,0 0.92859,0.42093 0.92859,0.93988c0,0.51922 -0.4158,0.94015 -0.92859,0.94015c-0.49229,0 -0.89273,0.40517 -0.89273,0.90329c0,0.49839 0.40045,0.90383 0.89273,0.90383c0.492,0 0.89226,-0.40544 0.89226,-0.90383c0,-0.51895 0.41571,-0.93988 0.92859,-0.93988c0.51279,0 0.9285,0.42066 0.9285,0.93988zM38.51048,26.35708c0,1.53496 -1.23339,2.7836 -2.74935,2.7836c-1.51625,0 -2.74982,-1.24864 -2.74982,-2.7836c0,-1.53469 1.23358,-2.78333 2.74982,-2.78333c0.51279,0 0.92859,0.42093 0.92859,0.93988c0,0.51922 -0.4158,0.94015 -0.92859,0.94015c-0.49229,0 -0.89273,0.40517 -0.89273,0.90329c0,0.49839 0.40045,0.90383 0.89273,0.90383c0.492,0 0.89226,-0.40544 0.89226,-0.90383c0,-0.51895 0.41571,-0.93988 0.92859,-0.93988c0.51279,0 0.9285,0.42066 0.9285,0.93988zM44.99995,13.87391v12.48345c0,0.51895 -0.4158,0.93988 -0.92859,0.93988h-2.81553c-0.44365,2.66528 -2.73781,4.70263 -5.49431,4.70263c-2.75717,0 -5.0518,-2.03735 -5.49555,-4.70263h-15.48166c-0.44365,2.66528 -2.73781,4.70263 -5.49431,4.70263c-2.75717,0 -5.0518,-2.03735 -5.49555,-4.70263h-1.93739c-1.02396,0 -1.85709,-0.8432 -1.85709,-1.88004v-23.53743c0,-1.03657 0.83313,-1.88004 1.85709,-1.88004h25.55809c1.02396,0 1.85709,0.84347 1.85709,1.88004v1.90942h7.12271c0.08202,0 0.16146,0.01068 0.23708,0.03098c2.30598,0.20352 3.45812,1.40782 4.67901,3.47001l3.56007,6.10591c0.0843,0.14476 0.12884,0.30982 0.12884,0.47782zM41.33479,17.90854h1.80798v-1.85039h-0.87938c-0.51203,0 -0.92859,0.42147 -0.92859,0.93988zM39.81931,8.43038h-6.90041v3.76648c0,0.52884 0.42496,0.95911 0.94728,0.95911c0.06495,0 0.12836,0.00668 0.1895,0.0195h8.53024zM1.85706,25.4172h1.93729c0.44346,-2.66528 2.73819,-4.70263 5.49564,-4.70263c2.75669,0 5.05104,2.03735 5.4944,4.70263h12.63075v-23.53743h-25.55809zM13.00608,26.35682c0,-2.07448 -1.66712,-3.76247 -3.71609,-3.76247c-2.04973,0 -3.71723,1.688 -3.71723,3.76247c0,2.07501 1.6675,3.76301 3.71723,3.76301c2.04897,0 3.71609,-1.688 3.71609,-3.76301zM39.4776,26.35682c0,-2.07448 -1.66712,-3.76247 -3.71609,-3.76247c-2.04973,0 -3.71723,1.688 -3.71723,3.76247c0,2.07501 1.6675,3.76301 3.71723,3.76301c2.04906,0 3.71609,-1.688 3.71609,-3.76301zM41.25592,25.4172h1.88684v-5.62889h-2.73657c-0.51279,0 -0.92859,-0.42093 -0.92859,-0.93988v-1.85066c0,-0.75212 0.29306,-1.43613 0.76914,-1.94227h-6.38056c-0.07935,0 -0.1564,-0.01015 -0.22993,-0.02911c-1.43929,-0.11859 -2.57454,-1.34239 -2.57454,-2.82953v-4.70636c0,-0.51922 0.4158,-0.94015 0.92859,-0.94015h6.4847c-0.65289,-0.62819 -1.39294,-0.88112 -2.57807,-0.88112h-6.6247v19.74798h0.99363c0.44346,-2.66528 2.73819,-4.70263 5.49564,-4.70263c2.75669,0 5.05104,2.03735 5.4944,4.70263zM3.75287,4.72907c0,-0.51895 0.4158,-0.93988 0.92859,-0.93988h19.90929c0.51279,0 0.92859,0.42093 0.92859,0.93988c0,0.51922 -0.4158,0.94015 -0.92859,0.94015h-19.90929c-0.51279,0 -0.92859,-0.42093 -0.92859,-0.94015z" fill="#f16d7f" fill-opacity="1"></path></g></g></svg>