<?xml version="1.0" encoding="UTF-8"?>
<svg id="SVGDoc" width="47" height="35" xmlns="http://www.w3.org/2000/svg" version="1.1" xmlns:xlink="http://www.w3.org/1999/xlink" xmlns:avocode="https://avocode.com/" viewBox="0 0 47 35"><defs></defs><desc>Generated with Avocode.</desc><g><g><title>Forma 1</title><path d="M47.01574,13.09098c0,2.13297 -1.51567,3.91605 -3.54824,4.40242v12.31491c0,0.08627 -0.02785,0.15972 -0.04997,0.24172c0.0309,0.12366 0.04997,0.2532 0.04997,0.38861c0,4.42085 -17.92669,4.55039 -19.96794,4.55039c-2.04334,0 -19.96794,-0.12954 -19.96794,-4.55039c0,-0.13541 0.01841,-0.26495 0.05007,-0.38861c-0.01841,-0.082 -0.05007,-0.15545 -0.05007,-0.24172v-12.31491c-2.02875,-0.48637 -3.54748,-2.26945 -3.54748,-4.40242c0,-2.50315 2.08693,-4.54184 4.64764,-4.54184c2.56224,0 4.64611,2.03869 4.64611,4.54184c0,1.34265 -0.60701,2.53948 -1.55859,3.37199l5.85957,2.05952l8.35495,-9.71641c-1.76907,-0.64261 -3.04575,-2.29616 -3.04575,-4.25071c0,-2.50476 2.08607,-4.54478 4.64621,-4.54478c2.5629,0 4.64687,2.04002 4.64687,4.54478c0,1.97405 -1.29957,3.63748 -3.09801,4.26513l8.3416,9.70199l5.86176,-2.05952c-0.95215,-0.83251 -1.55993,-2.02934 -1.55993,-3.37199c0,-2.50315 2.08387,-4.54184 4.64745,-4.54184c2.5609,0 4.64478,2.03869 4.64172,4.54184zM23.53561,6.88972c1.3135,0 2.38495,-1.04619 2.38495,-2.33275c0,-1.28683 -1.07145,-2.33435 -2.38495,-2.33435c-1.31559,0 -2.38695,1.04752 -2.38695,2.33435c0,1.28656 1.07136,2.33275 2.38695,2.33275zM5.79211,18.13467v9.95812c4.88462,-2.12576 16.11443,-2.20481 17.70744,-2.20481c1.59388,0 12.82139,0.07906 17.70744,2.20481v-9.95679l-7.76024,2.73071c-0.44441,0.15117 -0.94185,0.02163 -1.24512,-0.33226l-8.70056,-10.11945l-8.69846,10.11945c-0.3046,0.35389 -0.80357,0.48343 -1.24645,0.33092zM40.0665,30.91352c0.45328,-0.16693 0.79174,-0.32825 0.99478,-0.47488c-0.71964,-0.52242 -3.0611,-1.23502 -6.96697,-1.73554c-2.75497,-0.35416 -6.28119,-0.60469 -10.5917,-0.60469c-4.30994,0 -7.83529,0.25053 -10.58969,0.60469c-3.90663,0.50052 -6.24657,1.21312 -6.9684,1.73554c0.20313,0.14236 0.54235,0.30795 0.9963,0.47488c2.30846,0.85201 7.85437,1.86508 16.56179,1.86508c8.71096,0 14.25619,-1.01307 16.56389,-1.86508zM4.63617,15.42533c1.31578,0 2.38552,-1.04752 2.38552,-2.33435c0,-1.28523 -1.06974,-2.33141 -2.38552,-2.33141c-1.31569,0 -2.38714,1.04619 -2.38714,2.33141c0,1.28683 1.07145,2.33435 2.38714,2.33435zM44.76115,13.09098c0,-1.28523 -1.07441,-2.33141 -2.38714,-2.33141c-1.31559,0 -2.38695,1.04619 -2.38695,2.33141c0,1.28683 1.07136,2.33435 2.38695,2.33435c1.31273,0 2.38428,-1.04752 2.38714,-2.33435z" fill="#f16d7f" fill-opacity="1"></path></g></g></svg>