<?xml version="1.0" encoding="UTF-8"?>
<svg id="SVGDoc" width="40" height="40" xmlns="http://www.w3.org/2000/svg" version="1.1" xmlns:xlink="http://www.w3.org/1999/xlink" xmlns:avocode="https://avocode.com/" viewBox="0 0 40 40"><defs></defs><desc>Generated with Avocode.</desc><g><g><title>Forma 1</title><path d="M28.08711,22.83946c0,3.06591 -1.58558,4.58671 -3.41558,4.58671c-1.78299,0 -3.32756,-1.45216 -3.34806,-4.36129c0,-2.93236 1.56507,-4.56347 3.45917,-4.56347c2.00596,0 3.30534,1.56594 3.30448,4.33805zM26.56638,22.93214c0,-1.76893 -0.50659,-3.24459 -1.84956,-3.24459c-1.21145,0 -1.87273,1.45403 -1.87273,3.28893c-0.02222,1.85573 0.68264,3.26462 1.87273,3.26462c1.27716,0 1.84956,-1.38726 1.84956,-3.30896zM15.33124,21.40787c-1.78385,0 -3.32594,-1.45403 -3.34816,-4.38399c0,-2.90726 1.56345,-4.54157 3.45831,-4.54157c2.0051,0 3.3268,1.56754 3.3268,4.34045c0,3.06431 -1.58567,4.58511 -3.43695,4.58511zM15.37558,20.2236c1.27726,0 1.85051,-1.38726 1.85051,-3.30976c0,-1.76893 -0.50659,-3.24486 -1.85051,-3.24486c-1.20964,0 -1.85041,1.45323 -1.85041,3.28893c-0.04444,1.85493 0.64077,3.26409 1.85041,3.26569zM24.84834,12.63829l-8.41675,14.74889h-1.23281l8.41599,-14.74889zM38.79268,26.94648l-4.21009,1.60413l0.73299,4.50284l-4.49543,0.04594l-0.82102,4.48949l-4.24004,-1.51626l-2.28872,3.92914l-3.47118,-2.90379l-3.47195,2.90379l-2.28872,-3.92914l-4.24089,1.51546l-0.82102,-4.48976l-4.49457,-0.04487l0.73214,-4.50632l-4.20923,-1.60146l2.21014,-3.97454l-3.41215,-2.97216l3.41215,-2.97323l-2.21014,-3.97347l4.21009,-1.60333l-0.73299,-4.50364l4.49543,-0.04434l0.82188,-4.48949l4.24004,1.51466l2.28872,-3.92834l3.47195,2.90379l3.47204,-2.90379l2.28872,3.92914l4.24089,-1.51466l0.82092,4.48976l4.49467,0.04514l-0.73223,4.50338l4.20933,1.60333l-2.21014,3.97454l3.41215,2.97056l-3.41215,2.97403zM36.05286,25.93235l-1.12085,-2.01465l-0.76637,-1.37764l1.18322,-1.02989l1.73426,-1.51306l-1.7334,-1.50771l-1.18322,-1.03069l0.76628,-1.37871l1.12095,-2.01545l-2.13413,-0.81275l-1.45922,-0.55528l0.25463,-1.56247l0.37165,-2.28601l-2.28281,-0.0235l-1.55993,-0.01656l-0.28534,-1.55713l-0.41609,-2.27826l-2.15206,0.76868l-1.46856,0.52376l-0.79279,-1.35948l-1.16196,-1.99355l-1.76239,1.47299l-1.20554,1.00746l-1.20544,-1.00746l-1.76163,-1.47299l-1.161,1.99275l-0.79279,1.35948l-1.46856,-0.52403l-2.1512,-0.76868l-0.41695,2.27826l-0.28534,1.55739l-1.55993,0.01656l-2.28195,0.02244l0.37165,2.28708l0.25377,1.5614l-1.45922,0.55635l-2.13499,0.81275l1.12085,2.01465l0.76637,1.37764l-1.18237,1.03069l-1.73512,1.51119l1.7334,1.50958l1.18322,1.03069l-0.76637,1.37871l-1.12085,2.01438l2.13327,0.81141l1.46008,0.55608l-0.25463,1.56247l-0.37165,2.28868l2.28195,0.02244l1.56078,0.01656l0.28534,1.55819l0.41609,2.27746l2.15292,-0.76868l1.46856,-0.52403l0.79279,1.36028l1.16186,1.99355l1.76163,-1.47379l1.20544,-1.00746l1.2063,1.00746l1.76163,1.47379l1.1611,-1.99355l0.79193,-1.35948l1.46856,0.52403l2.1512,0.76948l0.41695,-2.27746l0.28534,-1.55819l1.56078,-0.01629l2.28195,-0.02163l-0.37165,-2.28708l-0.25377,-1.56247l1.45922,-0.55608z" fill="#f16d7f" fill-opacity="1"></path></g></g></svg>